<?xml version="1.0" encoding="UTF-8" standalone="no"?><!DOCTYPE svg PUBLIC "-//W3C//DTD SVG 1.1//EN" "http://www.w3.org/Graphics/SVG/1.1/DTD/svg11.dtd"><svg width="100%" height="100%" viewBox="0 0 19 19" version="1.1" xmlns="http://www.w3.org/2000/svg" xmlns:xlink="http://www.w3.org/1999/xlink" xml:space="preserve" xmlns:serif="http://www.serif.com/" style="fill-rule:evenodd;clip-rule:evenodd;stroke-linejoin:round;stroke-miterlimit:2;"><path d="M16.736,12.613c-0.917,0.745 -1.927,1.362 -3.022,1.796l1.991,3.45l1.976,0.843c0.359,0.154 0.765,-0.081 0.812,-0.468l0.257,-2.134l-2.014,-3.487Zm1.556,-3.463c0.178,-0.281 0.069,-0.659 -0.221,-0.82l-1.028,-0.57c-0.274,-0.152 -0.609,-0.053 -0.779,0.21c-1.505,2.326 -4.097,3.749 -6.889,3.749c-0.876,-0 -1.73,-0.156 -2.542,-0.422l2.467,-4.273c0.026,0 0.049,0.007 0.075,0.007c0.025,0 0.049,-0.007 0.074,-0.007l1.871,3.241c1.144,-0.329 2.181,-0.943 3.026,-1.792l-1.897,-3.285c0.273,-0.499 0.442,-1.063 0.442,-1.672c-0,-1.942 -1.574,-3.516 -3.516,-3.516c-1.942,0 -3.516,1.574 -3.516,3.516c0,0.609 0.169,1.173 0.442,1.672l-2.502,4.332c-0.459,-0.425 -0.877,-0.9 -1.233,-1.428c-0.175,-0.26 -0.512,-0.352 -0.783,-0.195l-1.016,0.589c-0.288,0.166 -0.389,0.545 -0.207,0.822c0.57,0.866 1.271,1.619 2.05,2.272l-2.61,4.521l0.257,2.133c0.047,0.388 0.453,0.622 0.812,0.469l1.976,-0.844l2.592,-4.491c1.179,0.448 2.442,0.695 3.738,0.695c3.627,-0 6.99,-1.869 8.917,-4.913Zm-8.917,-6.806c0.647,-0 1.172,0.525 1.172,1.172c-0,0.647 -0.525,1.172 -1.172,1.172c-0.647,-0 -1.172,-0.525 -1.172,-1.172c0,-0.647 0.525,-1.172 1.172,-1.172Z" style="fill:#98c33e;fill-rule:nonzero;"/></svg>