<?xml version="1.0" encoding="UTF-8" standalone="no"?><!DOCTYPE svg PUBLIC "-//W3C//DTD SVG 1.1//EN" "http://www.w3.org/Graphics/SVG/1.1/DTD/svg11.dtd"><svg width="100%" height="100%" viewBox="0 0 19 19" version="1.1" xmlns="http://www.w3.org/2000/svg" xmlns:xlink="http://www.w3.org/1999/xlink" xml:space="preserve" xmlns:serif="http://www.serif.com/" style="fill-rule:evenodd;clip-rule:evenodd;stroke-linejoin:round;stroke-miterlimit:2;"><path d="M4.009,8.937l4.928,-4.927l-1.616,-1.616l-2.258,2.259c-0.027,0.027 -0.059,0.048 -0.094,0.063c-0.036,0.014 -0.073,0.022 -0.112,0.022c-0.038,-0 -0.075,-0.008 -0.111,-0.022c-0.035,-0.015 -0.067,-0.036 -0.094,-0.063l-0.41,-0.411c-0.114,-0.113 -0.114,-0.297 -0,-0.41l2.258,-2.259l-1.232,-1.232c-0.453,-0.454 -1.189,-0.454 -1.642,-0l-3.286,3.285c-0.453,0.454 -0.453,1.189 0,1.643l3.669,3.668Zm14.226,-4.277c0.687,-0.687 0.687,-1.801 -0,-2.488l-1.657,-1.657c-0.687,-0.687 -1.801,-0.687 -2.489,0l-1.685,1.685l4.146,4.146l1.685,-1.686Zm-6.66,-1.631l-10.876,10.875l-0.687,3.935c-0.093,0.531 0.369,0.993 0.9,0.899l3.935,-0.69l10.874,-10.874l-4.146,-4.145Zm6.835,10.453l-1.232,-1.232l-2.259,2.259c-0.113,0.113 -0.297,0.113 -0.41,-0l-0.411,-0.411c-0.113,-0.113 -0.113,-0.297 0,-0.41l2.259,-2.259l-1.616,-1.616l-4.929,4.927l3.67,3.67c0.454,0.454 1.189,0.454 1.643,-0l3.285,-3.285c0.454,-0.454 0.454,-1.189 -0,-1.643Z" style="fill:#3f546b;fill-rule:nonzero;"/></svg>